#format: frame checksums
#version: 2
#hash: MD5
#extradata 0,                              16, c9a1741fb293b9ad21876492b5425a3b
#tb 0: 1/25
#media_type 0: video
#codec_id 0: utvideo
#dimensions 0: 352x288
#sar 0: 0/1
#stream#, dts,        pts, duration,     size, hash
0,          0,          0,        1,   197832, 11da778d3d904fcd2ad6daf84b227e6b
0,          1,          1,        1,   197840, e89c967c27d7cd9963c9f12f9df2c268
0,          2,          2,        1,   198632, b2c59f9834024d1e4b829e540a91814e
0,          3,          3,        1,   197100, b21b344d42da10ef6730fed553fb3f2f
0,          4,          4,        1,   196236, e61de0e4ff879b6630ae8eb63d063b7f
0,          5,          5,        1,   197352, efd21105f5f98cbd5953e85a10091531
0,          6,          6,        1,   197252, 0e2444a9185f68294c16f034dd522666
0,          7,          7,        1,   197204, 0254750d85c474c13fe3c0e4e3c272cf
0,          8,          8,        1,   197084, 4c89a99df233575978d9bcd8936e4588
0,          9,          9,        1,   197692, 681a76f67892f9d05be72abaa403bc32
0,         10,         10,        1,   197456, bba96b8520eaa5b6612b5c48d6409938
0,         11,         11,        1,   197024, b9ea3dcc0cb8cf552e536765c5bb31f6
0,         12,         12,        1,   195132, 2664b79397af76081b7ddd5c3507d579
0,         13,         13,        1,   196796, d6128308c1fc3493ebc2cece7ed785cb
0,         14,         14,        1,   198708, 6b3e50d5d47f29dfb38e178ffb9036c5
0,         15,         15,        1,   198000, a3d6be893edb02e44f65f7a06aa8eeed
0,         16,         16,        1,   197568, 1ed7a01f810770d62aed3d12d10cd12c
0,         17,         17,        1,   197396, 515e13befb9eebf92f77574d6cd9fec4
0,         18,         18,        1,   196680, ac1835b9a426927855e3e5dbab28c177
0,         19,         19,        1,   196784, 56fa26a339c69df17d003fb00b335baa
0,         20,         20,        1,   195980, 853744fb2a2de76858d32f35f8b3d836
0,         21,         21,        1,   196120, e9c50124d92e261f7a98599cb9a20e36
0,         22,         22,        1,   196620, e750eaed752d09874d823ee40a8904c4
0,         23,         23,        1,   197528, 6671598014db402b70e2753efda028d1
0,         24,         24,        1,   198204, 6e471eb9c354d6be4e0d8a691313e23e
0,         25,         25,        1,   197512, 7e415738fb7889dee478f63900f47e7c
0,         26,         26,        1,   196832, 0e30afab6de602d099d88edd6276f1de
0,         27,         27,        1,   196396, 13880ad888c9cf3504e2eb087767602e
0,         28,         28,        1,   194220, aa9007687cade8c9a872de063bed0755
0,         29,         29,        1,   194428, 78ab57958ef8914095477e58ee4461c2
0,         30,         30,        1,   195676, a7d0779dcda7f93da5601482bb68625b
0,         31,         31,        1,   196352, 668c525c910000aab7d9285be6ac7ed1
0,         32,         32,        1,   196468, 9c124995d63f2a548e640811e9391951
0,         33,         33,        1,   198188, 1cb600005e68d1ef1418b1b42e463f0a
0,         34,         34,        1,   197556, 80f6223aba2d6cfab3cb596f372243f2
0,         35,         35,        1,   197020, b1890bbb734c016103190a9c043e9fe2
0,         36,         36,        1,   196208, 7adf4b08c90231eddec16aff65cc138f
0,         37,         37,        1,   196448, de69c81a605c9e173a7ac65077d0396d
0,         38,         38,        1,   194072, 8b3afb6897210f1660b4427df0d9cc51
0,         39,         39,        1,   194036, 1827f1deef659426939ffd94b73575bc
0,         40,         40,        1,   194436, 46f3ad01e18a2a24d720e78f9bdb532d
0,         41,         41,        1,   195696, a160ff1e281959147fe11606754ecc7d
0,         42,         42,        1,   196044, 37f15771f5c04c13b02c0127bd977fed
0,         43,         43,        1,   196384, fc43c356e577555757e220bee7e8a232
0,         44,         44,        1,   195424, 6820346735e390b86d9564298c934101
0,         45,         45,        1,   193688, 5f346f622f8e0d33d7f662e9dfbcccb5
0,         46,         46,        1,   193000, 15eb6569d9fd39a343d110b965a97277
0,         47,         47,        1,   193592, d41d561eb927b8e0d608177af90d0e1d
0,         48,         48,        1,   193512, 35112e23e238beff03c769674db40399
0,         49,         49,        1,   192528, 3a3ac1b24fb8fc72174970d668c30292
